<?xml version="1.0" encoding="UTF-8" standalone="no"?>
<!-- Created with Inkscape (http://www.inkscape.org/) -->

<svg
   xmlns:dc="http://purl.org/dc/elements/1.1/"
   xmlns:cc="http://creativecommons.org/ns#"
   xmlns:rdf="http://www.w3.org/1999/02/22-rdf-syntax-ns#"
   xmlns:svg="http://www.w3.org/2000/svg"
   xmlns="http://www.w3.org/2000/svg"
   version="1.1"
   width="200"
   height="203"
   id="svg2">
  <metadata
     id="metadata8">
    <rdf:RDF>
      <cc:Work
         rdf:about="">
        <dc:format>image/svg+xml</dc:format>
        <dc:type
           rdf:resource="http://purl.org/dc/dcmitype/StillImage" />
        <dc:title></dc:title>
      </cc:Work>
    </rdf:RDF>
  </metadata>
  <defs
     id="defs6" />
  <path
     d=""
     id="path2993"
     style="fill:#000000" />
  <path
     d=""
     id="path2991"
     style="fill:#000000" />
  <path
     d=""
     id="path2989"
     style="fill:#000000" />
  <path
     d="m 88.078837,199.68835 c -0.89428,-1.53756 -1.85258,-2.98909 -2.12954,-3.22564 -0.27696,-0.23655 -1.64424,-2.75254 -3.03839,-5.5911 -1.39415,-2.83856 -2.77722,-5.35456 -3.07348,-5.5911 -0.29626,-0.23655 -1.62292,-2.75254 -2.94814,-5.5911 -1.32522,-2.83856 -2.66442,-5.35456 -2.97599,-5.59111 -0.31158,-0.23654 -1.70994,-2.75254 -3.10747,-5.5911 -1.39753,-2.83856 -3.07078,-5.71733 -3.71833,-6.39727 -0.64756,-0.67994 -1.89295,-2.90562 -2.76755,-4.94597 -0.87459,-2.04035 -1.89423,-3.71118 -2.26587,-3.71295 -0.67664,-0.003 -2.54829,-4.29538 -4.68719,-10.74889 -0.62719,-1.89237 -1.41137,-3.64387 -1.74262,-3.89222 -1.32493,-0.9933 -2.46206,-12.5777 -1.9066,-19.42336 l 0.58152,-7.16695 -2.91167,0.83489 c -1.60142,0.4592 -3.0407,1.22132 -3.1984,1.6936 -0.15769,0.47229 -0.831,0.8587 -1.49624,0.8587 -0.66524,0 -5.34503,1.16123 -10.39953,2.58051 -5.05451,1.41928 -10.42363,2.58051 -11.93139,2.58051 -3.54943,0 -7.82929,-2.94916 -16.0814701,-11.08138 l -6.648746,-6.5521 -0.006,-9.461864 c -0.008,-12.85449 0.24441,-13.6341 4.174016,-12.8969 1.70729,0.32029 3.30812,0.91234 3.55739,1.31567 0.24927,0.40333 1.9920001,1.10866 3.8727301,1.56741 8.12535,1.98193 12.69384,3.41694 13.19932,4.14602 0.29823,0.43016 4.31622,1.88371 8.92888,3.23013 4.61266,1.34642 8.38665,2.6965 8.38665,3.00019 0,0.30369 1.83862,1.08433 4.08581,1.73476 2.24719,0.65042 4.47288,1.31998 4.94597,1.48791 0.56788,0.20157 0.7711,-13.21669 0.59804,-39.48739 -0.25152,-38.1805 0.27026,-49.18816 2.39589,-50.5448301 0.37062,-0.23655 1.39996,-1.97839 2.28741,-3.87076 2.03102,-4.33087 4.88716,-4.793 5.33336,-0.86297 0.16096,1.41775 0.58825,2.77251 0.94955,3.0106 0.36129,0.23808 1.75207,6.6261001 3.09063,14.1955901 1.33856,7.56949 2.70276,13.95625 3.03155,14.19279 0.49251,0.35434 3.12195,13.44153 4.92544,24.51484 0.23116,1.41928 0.68677,2.77404 1.01248,3.01059 0.3257,0.23655 1.25531,4.30085 2.06579,9.03178 0.81048,4.73093 1.91052,11.11769 2.44452,14.19279 0.53401,3.07511 1.22755,5.78464 1.54119,6.02119 0.31365,0.23655 1.00718,2.94608 1.54119,6.02119 0.53401,3.075104 1.63404,9.461854 2.44453,14.192794 0.81047,4.73093 1.7481,8.79523 2.08361,9.03178 0.33551,0.23654 1.86215,7.59099 3.39254,16.34322 1.53038,8.75222 3.0506,16.10667 3.37825,16.34322 0.32766,0.23654 1.47388,5.65561 2.54718,12.04237 1.07328,6.38676 2.1406,12.28967 2.371813,13.11758 0.84659,3.03147 1.89438,1.35801 2.96216,-4.73093 0.60148,-3.42992 1.33693,-6.42976 1.63433,-6.66631 0.51898,-0.4128 2.27886,-9.18564 4.40012,-21.93432 0.55103,-3.31166 1.28402,-6.21473 1.62887,-6.45127 0.34485,-0.23655 1.70936,-6.81685 3.03224,-14.62289 1.32288,-7.80603 2.67926,-14.38633 3.01417,-14.62288 0.33492,-0.23654 1.68357,-6.6233 2.99701,-14.192794 1.31343,-7.56949 2.6682,-13.95625 3.01059,-14.19279 0.34239,-0.23655 1.69716,-6.62331 3.01059,-14.1928 1.31344,-7.56949 2.6428,-13.95625 2.95414,-14.1928 0.31134,-0.23654 1.68192,-6.6233 3.04572,-14.19279 1.3638,-7.56949 2.72981,-13.95625 3.0356,-14.1928 0.52134,-0.4033 1.28526,-4.25659 3.62377,-18.2786001 0.78915,-4.73181 1.26337,-5.80614 2.56288,-5.80614 0.87701,0 1.84315,0.64781 2.14698,1.43958 0.30384,0.79178 1.23896,2.12613 2.07806,2.96522 3.53577,3.53579 3.77438,6.9349501 3.60537,51.3626301 -0.13339,35.06226 0.0379,42.35832 0.98568,41.99461 0.63091,-0.2421 2.7357,-0.91614 4.67732,-1.49786 1.94161,-0.58173 3.53021,-1.33837 3.53021,-1.68142 0,-0.34305 0.87092,-0.82677 1.93538,-1.07491 5.65788,-1.31896 14.90271,-4.36053 15.33845,-5.0464 0.27529,-0.43331 4.33959,-1.81345 9.03178,-3.06697 4.69219,-1.25352 8.75611,-2.60767 9.03094,-3.00923 0.27483,-0.40156 1.86389,-0.95149 3.53125,-1.22206 3.83146,-0.62176 4.11295,0.24801 4.12893,12.75819 l 0.0118,9.194694 -6.9335,6.93348 c -3.81345,3.81342 -7.17543,6.93349 -7.47107,6.93349 -0.29566,0 -1.46462,0.87092 -2.59768,1.93538 -1.59134,1.49498 -3.07194,1.93351 -6.50671,1.92716 -4.36136,-0.008 -22.05294,-4.433 -22.983,-5.74839 -0.26006,-0.36781 -1.67443,-0.90907 -3.14304,-1.2028 l -2.67021,-0.53403 -0.35129,12.34841 c -0.2568,9.02711 -0.76896,13.5052 -1.90416,16.64927 -0.85408,2.36546 -1.83365,4.49438 -2.17682,4.73093 -0.34317,0.23655 -1.68307,2.55513 -2.97754,5.15239 -1.29448,2.59726 -2.64269,4.91972 -2.99604,5.16102 -0.35335,0.24129 -1.55771,2.67064 -2.67636,5.39856 -1.11865,2.72791 -2.64849,5.63099 -3.39963,6.45127 -0.75115,0.82028 -2.44786,4.0023 -3.77047,7.07115 -1.32261,3.06885 -2.68302,5.77839 -3.02313,6.02119 -0.3401,0.2428 -1.72948,2.66714 -3.08751,5.38743 -1.35801,2.72029 -2.70937,4.94597 -3.00302,4.94597 -0.29364,0 -1.68188,2.3161 -3.08498,5.14687 l -2.55109,5.14687 -12.07195,0.0142 -12.071963,0.0141 -1.62598,-2.79555 0,0 z m 0.75812,-27.8428 c -1.25322,-6.09393 -2.55776,-11.27341 -2.89896,-11.50996 -0.34121,-0.23654 -1.71185,-6.13946 -3.04586,-13.11758 -1.33402,-6.97813 -2.69971,-12.6875 -3.03487,-12.6875 -0.33516,0 -1.08297,-2.93575 -1.66179,-6.52389 -1.11056,-6.8843 -3.0036,-12.39984 -4.25585,-12.39984 -0.41157,0 -0.9764,-0.67738 -1.25518,-1.5053 -0.95179,-2.82656 -3.96042,-7.43896 -5.36518,-8.2251 -1.27977,-0.7162 -1.36961,0.59629 -1.0274,15.00987 0.30432,12.81757 0.67609,16.52427 1.97238,19.66544 0.87856,2.12892 1.88566,4.06942 2.23799,4.31222 0.35234,0.2428 1.71581,2.95234 3.02993,6.02119 1.31413,3.06885 2.63683,5.77327 2.93935,6.00981 0.30252,0.23655 1.60915,2.55513 2.90362,5.15239 1.29448,2.59727 2.63705,4.91973 2.98349,5.16102 0.34645,0.2413 1.7286,3.05148 3.07146,6.24486 1.34285,3.19338 2.7286,5.80614 3.07943,5.80614 0.35084,0 0.89222,1.01337 1.20308,2.25193 0.31085,1.23855 0.75368,2.06342 0.98406,1.83304 0.23038,-0.23038 -0.60648,-5.40481 -1.8597,-11.49874 l 0,0 z m 25.444453,8.69616 c 0.5479,-1.66015 1.46178,-3.49876 2.03084,-4.0858 0.56908,-0.58704 2.11488,-3.57823 3.43513,-6.64708 1.32024,-3.06885 2.66598,-5.77839 2.99053,-6.02119 0.32455,-0.2428 1.73076,-2.76391 3.12491,-5.60247 1.39415,-2.83856 2.79826,-5.35456 3.12025,-5.5911 0.32198,-0.23655 1.64013,-2.94608 2.92922,-6.02119 1.28908,-3.07511 2.71804,-5.82644 3.17545,-6.11408 1.74495,-1.0973 4.12814,-36.03422 2.45806,-36.03422 -0.48455,0 -1.8584,1.5483 -3.053,3.44067 -1.19461,1.89238 -2.5116,3.44068 -2.92666,3.44068 -0.97517,0 -4.29687,7.06444 -4.9843,10.60039 -0.29214,1.50273 -0.80302,2.92578 -1.13526,3.16232 -0.33225,0.23655 -1.66417,5.84916 -2.95981,12.47246 -1.29563,6.62331 -2.62831,12.23591 -2.9615,12.47246 -0.33319,0.23655 -1.68808,5.84915 -3.01088,12.47246 -1.3228,6.6233 -2.7003,12.23591 -3.06112,12.47245 -0.36081,0.23655 -0.927,2.2687 -1.2582,4.51589 -0.71516,4.85244 0.61291,5.53187 2.08634,1.06735 l 0,0 z"
     id="path2995"
     style="fill:#ffffff;fill-opacity:1" />
</svg>
